<?xml version="1.0" encoding="utf-8"?>
<svg width="48px" height="48px" viewBox="128.836 210.43 48 48" xmlns="http://www.w3.org/2000/svg">
  <path d="M 161.203 239.504 L 160.703 239.504 L 160.703 233.504 C 160.703 230.196 158.011 227.504 154.703 227.504 L 150.703 227.504 C 147.395 227.504 144.703 230.196 144.703 233.504 L 144.703 239.504 L 144.203 239.504 C 143.378 239.504 142.703 240.179 142.703 241.004 L 142.703 256.004 C 142.703 256.829 143.378 257.504 144.203 257.504 L 161.203 257.504 C 162.028 257.504 162.703 256.829 162.703 256.004 L 162.703 241.004 C 162.703 240.179 162.028 239.504 161.203 239.504 Z M 148.703 233.504 C 148.703 232.401 149.6 231.504 150.703 231.504 L 154.703 231.504 C 155.806 231.504 156.703 232.401 156.703 233.504 L 156.703 239.504 L 148.703 239.504 L 148.703 233.504 Z"/>
  <path d="M 138.836 225.298 C 142.613 221.521 147.636 219.44 152.978 219.44 C 158.32 219.44 163.343 221.52 167.12 225.298 L 164.292 228.126 C 161.27 225.104 157.252 223.44 152.978 223.44 C 148.704 223.44 144.686 225.104 141.664 228.126 L 138.836 225.298 Z M 163.877 213.641 C 167.211 215.051 170.206 217.07 172.776 219.641 L 169.948 222.469 C 165.415 217.936 159.388 215.44 152.977 215.44 C 146.566 215.44 140.539 217.936 136.006 222.469 L 133.178 219.641 C 135.749 217.07 138.743 215.052 142.077 213.641 C 145.53 212.18 149.197 211.44 152.976 211.44 C 156.755 211.44 160.422 212.181 163.875 213.641 L 163.877 213.641 Z" style="fill: rgb(30, 144, 255);"/>
</svg>